<svg width="0" height="0" class="hidden">
	<symbol fill="currentcolor" xmlns="http://www.w3.org/2000/svg" viewBox="0 0 47 47" id="boxes">
		<path d="M14.6042 0.625C18.3117 0.625 21.8673 2.0978 24.4889 4.7194C27.1105 7.34101 28.5833 10.8967 28.5833 14.6042C28.5833 17.9846 27.3888 21.0854 25.3808 23.5H46.375V46.375H23.5V25.3808C21.0854 27.3888 17.9846 28.5833 14.6042 28.5833C10.8967 28.5833 7.34101 27.1105 4.7194 24.4889C2.0978 21.8673 0.625 18.3117 0.625 14.6042C0.625 10.8967 2.0978 7.34101 4.7194 4.7194C7.34101 2.0978 10.8967 0.625 14.6042 0.625Z"></path>
	</symbol>
	<symbol fill="currentcolor" xmlns="http://www.w3.org/2000/svg" viewBox="0 0 49 47" id="brush">
		<path d="M47.6366 4.76792L44.2308 1.36209C43.2904 0.37084 41.6383 0.37084 40.647 1.36209L17.8737 24.1354L24.8633 31.125L47.6366 8.35167C48.6279 7.36042 48.6279 5.70834 47.6366 4.76792ZM12.7904 28.5833C10.7681 28.5833 8.82864 29.3867 7.39868 30.8167C5.96871 32.2466 5.16536 34.1861 5.16536 36.2083C5.16536 39.5379 2.21703 41.2917 0.0820312 41.2917C2.42036 44.3925 6.4362 46.375 10.2487 46.375C12.9451 46.375 15.531 45.3039 17.4376 43.3973C19.3442 41.4906 20.4154 38.9047 20.4154 36.2083C20.4154 34.1861 19.612 32.2466 18.1821 30.8167C16.7521 29.3867 14.8126 28.5833 12.7904 28.5833Z"></path>
	</symbol>
	<symbol fill="currentcolor" xmlns="http://www.w3.org/2000/svg" viewBox="0 0 33 33" id="facebook">
		<path d="M31.2126 0.786133H1.75349C1.04503 0.786133 0.472656 1.3585 0.472656 2.06696V31.5261C0.472656 32.2345 1.04503 32.8069 1.75349 32.8069H31.2126C31.9211 32.8069 32.4934 32.2345 32.4934 31.5261V2.06696C32.4934 1.3585 31.9211 0.786133 31.2126 0.786133ZM27.5142 10.1322H24.9565C22.9512 10.1322 22.563 11.0848 22.563 12.4857V15.5717H27.3501L26.7257 20.4029H22.563V32.8069H17.5718V20.4069H13.397V15.5717H17.5718V12.0094C17.5718 7.87473 20.0974 5.62127 23.7878 5.62127C25.5569 5.62127 27.0739 5.75336 27.5182 5.8134V10.1322H27.5142Z"></path>
	</symbol>
	<symbol fill="currentcolor" xmlns="http://www.w3.org/2000/svg" viewBox="0 0 33 33" id="linkedin">
		<path d="M31.197 0.786133H1.73786C1.0294 0.786133 0.457031 1.3585 0.457031 2.06696V31.5261C0.457031 32.2345 1.0294 32.8069 1.73786 32.8069H31.197C31.9054 32.8069 32.4778 32.2345 32.4778 31.5261V2.06696C32.4778 1.3585 31.9054 0.786133 31.197 0.786133ZM9.95519 28.0718H5.20411V12.7899H9.95519V28.0718ZM7.58165 10.7006C7.03701 10.7006 6.50459 10.5391 6.05173 10.2365C5.59887 9.93388 5.24591 9.5038 5.03749 9.00061C4.82906 8.49742 4.77453 7.94372 4.88078 7.40954C4.98704 6.87536 5.24931 6.38468 5.63443 5.99956C6.01956 5.61443 6.51024 5.35216 7.04442 5.24591C7.5786 5.13965 8.13229 5.19418 8.63548 5.40261C9.13867 5.61104 9.56875 5.964 9.87134 6.41686C10.1739 6.86972 10.3354 7.40213 10.3354 7.94678C10.3314 9.46777 9.09864 10.7006 7.58165 10.7006ZM27.7427 28.0718H22.9957V20.639C22.9957 18.8659 22.9636 16.5884 20.5261 16.5884C18.0565 16.5884 17.6762 18.5176 17.6762 20.5109V28.0718H12.9331V12.7899H17.4881V14.8793H17.5521C18.1845 13.6785 19.7335 12.4097 22.047 12.4097C26.8582 12.4097 27.7427 15.5757 27.7427 19.6904V28.0718Z"></path>
	</symbol>
	<symbol fill="currentcolor" xmlns="http://www.w3.org/2000/svg" viewBox="0 0 27 22" id="mail">
		<path d="M25.8125 0.904785H1.4375C0.918945 0.904785 0.5 1.32373 0.5 1.84229V20.5923C0.5 21.1108 0.918945 21.5298 1.4375 21.5298H25.8125C26.3311 21.5298 26.75 21.1108 26.75 20.5923V1.84229C26.75 1.32373 26.3311 0.904785 25.8125 0.904785ZM24.6406 4.15088V19.4204H2.60938V4.15088L1.80078 3.521L2.95215 2.0415L4.20605 3.01709H23.0469L24.3008 2.0415L25.4521 3.521L24.6406 4.15088V4.15088ZM23.0469 3.01416L13.625 10.3384L4.20312 3.01416L2.94922 2.03857L1.79785 3.51807L2.60645 4.14795L12.6143 11.9292C12.9021 12.1528 13.2561 12.2742 13.6206 12.2742C13.9851 12.2742 14.3391 12.1528 14.627 11.9292L24.6406 4.15088L25.4492 3.521L24.2979 2.0415L23.0469 3.01416Z"></path>
	</symbol>
	<symbol fill="currentcolor" xmlns="http://www.w3.org/2000/svg" viewBox="0 0 45 42" id="pencil">
		<path d="M18.2486 41.65C22.402 40.0167 21.492 35.5134 19.392 32.6667C17.3153 29.75 14.4453 27.7434 11.552 25.8067C9.48756 24.5055 7.64432 22.8829 6.09197 21C5.43863 20.23 4.10863 18.8067 5.46197 18.5267C6.83863 18.2467 9.21863 19.6 10.432 20.1134C12.5553 21 14.6553 22.0267 16.6153 23.24L18.972 19.2734C15.332 16.87 10.6653 14.7467 6.3253 14.1167C3.85197 13.7434 1.23863 14.2567 0.398634 16.94C-0.348033 19.25 0.841967 21.5834 2.1953 23.4034C5.39197 27.6734 10.362 29.7267 14.072 33.4134C14.8653 34.1834 15.822 35.0934 16.2886 36.1667C16.7786 37.1934 16.662 37.2634 15.5653 37.2634C12.672 37.2634 9.0553 35 6.69864 33.5067L4.34197 37.4734C7.91197 39.6667 13.8853 43.0967 18.2486 41.65ZM44.1253 5.25004C44.6386 4.7367 44.6386 3.8967 44.1253 3.4067L41.092 0.373369C40.8476 0.137831 40.5214 0.00622559 40.182 0.00622559C39.8425 0.00622559 39.5164 0.137831 39.272 0.373369L36.892 2.75337L41.7453 7.6067L44.1253 5.25004ZM21.1653 18.48V23.3334H26.0186L40.3686 8.98337L35.5153 4.13004L21.1653 18.48Z"></path>
	</symbol>
	<symbol fill="currentcolor" xmlns="http://www.w3.org/2000/svg" viewBox="0 0 21 33" id="phone">
		<path d="M16.3346 0.761719H4.66797C2.24714 0.761719 0.292969 2.71589 0.292969 5.13672V28.4701C0.292969 30.8909 2.24714 32.8451 4.66797 32.8451H16.3346C18.7555 32.8451 20.7096 30.8909 20.7096 28.4701V5.13672C20.7096 2.71589 18.7555 0.761719 16.3346 0.761719ZM13.418 29.9284H7.58464V28.4701H13.418V29.9284ZM18.1576 25.5534H2.84505V5.13672H18.1576V25.5534Z"></path>
	</symbol>
	<symbol fill="currentcolor" xmlns="http://www.w3.org/2000/svg" viewBox="0 0 40 48" id="play">
		<path d="M0.402344 0.593994L39.4434 24.0186L0.402344 47.4432V0.593994Z"></path>
	</symbol>
	<symbol fill="currentcolor" xmlns="http://www.w3.org/2000/svg" viewBox="0 0 26 33" id="position">
		<g clip-path="url(#clip0_67_7924)">
			<path d="M13.0013 19.884C16.4941 19.884 19.3346 17.0435 19.3346 13.5506C19.3346 10.0578 16.4941 7.21729 13.0013 7.21729C9.50847 7.21729 6.66797 10.0578 6.66797 13.5506C6.66797 17.0435 9.50847 19.884 13.0013 19.884ZM13.0013 10.384C14.7477 10.384 16.168 11.8042 16.168 13.5506C16.168 15.297 14.7477 16.7173 13.0013 16.7173C11.2549 16.7173 9.83464 15.297 9.83464 13.5506C9.83464 11.8042 11.2549 10.384 13.0013 10.384Z"></path>
			<path d="M11.7485 32.256C12.0164 32.4473 12.3375 32.5502 12.6668 32.5502C12.9961 32.5502 13.3172 32.4473 13.5851 32.256C14.0665 31.9155 25.3794 23.7471 25.3335 13.5505C25.3335 6.56637 19.6509 0.883789 12.6668 0.883789C5.68272 0.883789 0.000139393 6.56637 0.000139393 13.5425C-0.0457773 23.7471 11.2671 31.9155 11.7485 32.256ZM12.6668 4.05046C17.9061 4.05046 22.1668 8.31121 22.1668 13.5584C22.2001 20.5852 15.2191 26.8948 12.6668 28.9642C10.1161 26.8932 3.13356 20.582 3.16681 13.5505C3.16681 8.31121 7.42756 4.05046 12.6668 4.05046Z"></path>
		</g>
		<defs>
			<clipPath id="clip0_67_7924">
				<rect width="26" height="32" transform="translate(0 0.717285)"></rect>
			</clipPath>
		</defs>
	</symbol>
	<symbol fill="currentcolor" xmlns="http://www.w3.org/2000/svg" viewBox="0 0 35 28" id="twitter">
		<path d="M34.1455 3.48168C32.9207 4.01002 31.5878 4.39027 30.2149 4.53837C31.6403 3.69156 32.7077 2.35375 33.2168 0.775924C31.8793 1.5716 30.414 2.12954 28.886 2.42499C28.2474 1.74226 27.475 1.19836 26.617 0.827188C25.7589 0.456017 24.8337 0.26553 23.8988 0.267595C20.1163 0.267595 17.0744 3.33358 17.0744 7.09603C17.0744 7.62437 17.1384 8.15271 17.2425 8.66104C11.5788 8.36485 6.52753 5.65909 3.16936 1.5164C2.55746 2.56154 2.2368 3.75156 2.24075 4.96264C2.24075 7.33218 3.44553 9.42154 5.28273 10.6503C4.20004 10.6077 3.14271 10.3101 2.19672 9.78177V9.86582C2.19672 13.184 4.54225 15.9338 7.66827 16.5662C7.08133 16.7186 6.47753 16.7966 5.87111 16.7983C5.42682 16.7983 5.00655 16.7543 4.58227 16.6943C5.44683 19.4 7.96447 21.3653 10.9624 21.4293C8.61689 23.2665 5.67898 24.3472 2.48891 24.3472C1.91654 24.3472 1.3882 24.3272 0.839844 24.2632C3.86581 26.2044 7.45614 27.3252 11.3226 27.3252C23.8748 27.3252 30.7432 16.9264 30.7432 7.90055C30.7432 7.60436 30.7432 7.30816 30.7232 7.01197C32.0521 6.03934 33.2168 4.83456 34.1455 3.48168Z"></path>
	</symbol>
</svg>
